<svg width="136" height="136" viewBox="0 0 136 136" fill="none" xmlns="http://www.w3.org/2000/svg">
<path fill-rule="evenodd" clip-rule="evenodd" d="M1.5 24C1.5 21.3064 3.04289 18.5316 6.30478 15.8097C9.55824 13.0949 14.3558 10.5827 20.4159 8.44386C32.5226 4.17092 49.346 1.5 68 1.5C86.654 1.5 103.477 4.17092 115.584 8.44386C121.644 10.5827 126.442 13.0949 129.695 15.8097C132.957 18.5316 134.5 21.3064 134.5 24C134.5 26.6936 132.957 29.4684 129.695 32.1903C126.442 34.9051 121.644 37.4173 115.584 39.5561C103.477 43.8291 86.654 46.5 68 46.5C49.346 46.5 32.5226 43.8291 20.4159 39.5561C14.3558 37.4173 9.55824 34.9051 6.30478 32.1903C3.04289 29.4684 1.5 26.6936 1.5 24ZM131.617 34.4937C132.71 33.5816 133.679 32.6224 134.5 31.6193V112C134.5 114.694 132.957 117.468 129.695 120.19C126.442 122.905 121.644 125.417 115.584 127.556C103.477 131.829 86.654 134.5 68 134.5C49.346 134.5 32.5226 131.829 20.4159 127.556C14.3558 125.417 9.55824 122.905 6.30478 120.19C3.04289 117.468 1.5 114.694 1.5 112V31.6193C2.32057 32.6224 3.28977 33.5816 4.3827 34.4937C8.01118 37.5215 13.172 40.1808 19.4174 42.3851C31.9218 46.7984 49.0984 49.5 68 49.5C86.9016 49.5 104.078 46.7984 116.583 42.3851C122.828 40.1808 127.989 37.5215 131.617 34.4937Z" fill="#D99BFF"/>
</svg>
